<svg width="50" height="34" viewBox="0 0 50 34" fill="none" xmlns="http://www.w3.org/2000/svg">
<path fill-rule="evenodd" clip-rule="evenodd" d="M11.3087 12.9999C11.3087 12.8277 11.3959 12.4619 11.7498 12.1342C12.0916 11.8178 12.7531 11.4743 14.0011 11.4743C15.249 11.4743 15.9105 11.8178 16.2523 12.1342C16.6062 12.4619 16.6934 12.8277 16.6934 12.9999H18.3087C18.3087 12.3944 18.0459 11.5935 17.3498 10.9489C16.6416 10.2932 15.5531 9.85889 14.0011 9.85889C12.449 9.85889 11.3605 10.2932 10.6523 10.9489C9.9562 11.5935 9.69336 12.3944 9.69336 12.9999H11.3087ZM11.3087 13V14.8202H16.6934V13H18.3087V14.8202H21.0831C21.5292 14.8202 21.8908 15.1818 21.8908 15.6279V26.661C21.8908 27.2954 21.6367 27.9024 21.1865 28.3489C20.7365 28.7953 20.1276 29.0449 19.4941 29.0449H8.37128C7.73774 29.0449 7.12885 28.7953 6.67889 28.3489C6.22872 27.9024 5.97461 27.2954 5.97461 26.661V15.6279C5.97461 15.1818 6.33623 14.8202 6.7823 14.8202H9.69336V13H11.3087ZM9.69336 18.8333V16.4356H7.58999V26.661C7.58999 26.8627 7.6707 27.0575 7.81651 27.2021C7.96254 27.3469 8.16197 27.4295 8.37128 27.4295H19.4941C19.7034 27.4295 19.9029 27.3469 20.0489 27.2021C20.1947 27.0575 20.2754 26.8627 20.2754 26.661V16.4356H18.3087V18.8333H16.6934V16.4356H11.3087V18.8333H9.69336Z" fill="#121212"/>
<g clip-path="url(#clip0_7698_25653)">
<circle cx="25" cy="10" r="10" fill="#FF6FBC"/>
<path d="M21.9281 14V12.6705L25.0346 9.79403C25.2988 9.53835 25.5204 9.30824 25.6994 9.10369C25.8812 8.89915 26.019 8.69886 26.1127 8.50284C26.2065 8.30398 26.2534 8.08949 26.2534 7.85938C26.2534 7.60369 26.1951 7.38352 26.0787 7.19886C25.9622 7.01136 25.8031 6.8679 25.6014 6.76847C25.3997 6.66619 25.171 6.61506 24.9153 6.61506C24.6483 6.61506 24.4153 6.66903 24.2164 6.77699C24.0176 6.88494 23.8642 7.03977 23.7562 7.24148C23.6483 7.44318 23.5943 7.68324 23.5943 7.96165H21.8429C21.8429 7.39062 21.9721 6.89489 22.2306 6.47443C22.4892 6.05398 22.8514 5.72869 23.3173 5.49858C23.7832 5.26847 24.3201 5.15341 24.9281 5.15341C25.5531 5.15341 26.0971 5.2642 26.5602 5.4858C27.0261 5.70455 27.3883 6.00852 27.6468 6.39773C27.9054 6.78693 28.0346 7.23295 28.0346 7.7358C28.0346 8.06534 27.9693 8.39062 27.8386 8.71165C27.7108 9.03267 27.4821 9.3892 27.1525 9.78125C26.823 10.1705 26.3585 10.6378 25.7591 11.1832L24.4849 12.4318V12.4915H28.1497V14H21.9281Z" fill="white"/>
</g>
<defs>
<clipPath id="clip0_7698_25653">
<rect width="20" height="20" fill="white" transform="translate(15)"/>
</clipPath>
</defs>
</svg>
