<svg width="18" height="18" viewBox="0 0 18 18" fill="none" xmlns="http://www.w3.org/2000/svg">
<path fill-rule="evenodd" clip-rule="evenodd" d="M0.75 0C1.16421 0 1.5 0.335786 1.5 0.75V16.75C1.5 17.1642 1.16421 17.5 0.75 17.5C0.335786 17.5 0 17.1642 0 16.75V0.75C0 0.335786 0.335786 0 0.75 0ZM4.75 0C5.16421 0 5.5 0.335786 5.5 0.75V16.75C5.5 17.1642 5.16421 17.5 4.75 17.5C4.33579 17.5 4 17.1642 4 16.75V0.75C4 0.335786 4.33579 0 4.75 0ZM9.5 0.75C9.5 0.335786 9.16421 0 8.75 0C8.33579 0 8 0.335786 8 0.75V16.75C8 17.1642 8.33579 17.5 8.75 17.5C9.16421 17.5 9.5 17.1642 9.5 16.75V0.75ZM12.75 0C13.1642 0 13.5 0.335786 13.5 0.75V16.75C13.5 17.1642 13.1642 17.5 12.75 17.5C12.3358 17.5 12 17.1642 12 16.75V0.75C12 0.335786 12.3358 0 12.75 0ZM17.5 0.75C17.5 0.335786 17.1642 0 16.75 0C16.3358 0 16 0.335786 16 0.75V16.75C16 17.1642 16.3358 17.5 16.75 17.5C17.1642 17.5 17.5 17.1642 17.5 16.75V0.75Z" fill="#121212"/>
</svg>
