<svg width="30" height="30" viewBox="0 0 30 30" fill="none" xmlns="http://www.w3.org/2000/svg">
<path d="M25.0004 25L19.9379 19.9375M19.9379 19.9375C20.7505 19.1249 21.3951 18.1603 21.8348 17.0986C22.2746 16.037 22.5009 14.8991 22.5009 13.75C22.5009 12.6008 22.2746 11.463 21.8348 10.4013C21.3951 9.33965 20.7505 8.37501 19.9379 7.56246C19.1254 6.7499 18.1607 6.10535 17.0991 5.6656C16.0374 5.22585 14.8996 4.99951 13.7504 4.99951C12.6013 4.99951 11.4634 5.22585 10.4018 5.6656C9.34014 6.10535 8.3755 6.7499 7.56295 7.56246C5.92192 9.20349 5 11.4292 5 13.75C5 16.0707 5.92192 18.2964 7.56295 19.9375C9.20397 21.5785 11.4297 22.5004 13.7504 22.5004C16.0712 22.5004 18.2969 21.5785 19.9379 19.9375Z" stroke="white" stroke-width="2.5" stroke-linecap="round" stroke-linejoin="round"/>
</svg>
