<svg width="28" height="28" viewBox="0 0 28 28" fill="none" xmlns="http://www.w3.org/2000/svg">
<path fill-rule="evenodd" clip-rule="evenodd" d="M9.65715 9.33325C9.65715 7.20199 11.3849 5.47427 13.5161 5.47427C15.6474 5.47427 17.3751 7.20199 17.3751 9.33325C17.3751 11.4645 15.6474 13.1922 13.5161 13.1922C11.3849 13.1922 9.65715 11.4645 9.65715 9.33325ZM13.5161 3.85889C10.4927 3.85889 8.04177 6.30984 8.04177 9.33325C8.04177 12.3567 10.4927 14.8076 13.5161 14.8076C16.5395 14.8076 18.9905 12.3567 18.9905 9.33325C18.9905 6.30984 16.5395 3.85889 13.5161 3.85889ZM8.45268 19.3168C9.17638 18.5931 10.1579 18.1865 11.1814 18.1865H15.8481C16.8715 18.1865 17.8531 18.5931 18.5768 19.3168C19.3005 20.0405 19.707 21.022 19.707 22.0455V24.3788C19.707 24.8249 20.0686 25.1865 20.5147 25.1865C20.9608 25.1865 21.3224 24.8249 21.3224 24.3788V22.0455C21.3224 20.5936 20.7457 19.2011 19.719 18.1745C18.6924 17.1479 17.2999 16.5711 15.8481 16.5711H11.1814C9.7295 16.5711 8.33708 17.1479 7.31043 18.1745C6.28379 19.2011 5.70703 20.5936 5.70703 22.0455V24.3788C5.70703 24.8249 6.06865 25.1865 6.51472 25.1865C6.9608 25.1865 7.32242 24.8249 7.32242 24.3788V22.0455C7.32242 21.022 7.72899 20.0405 8.45268 19.3168Z" fill="#121212"/>
</svg>
